# xmcd
#
# Track frame offsets:
# 150
# 22518
# 52822
# 84558
# 107413
# 141069
# 179892
# 210525
# 243723
# 272248
# 307472
#
# Disc length: 4664 seconds
#
# Revision: 0
# Processed by: cddbd v1.4PL0 Copyright (c) Steve Scherf et al.
# Submitted via: Audion 3.0.2 (http://www.panic.com/audion/)
#
DISCID=9912360b
DTITLE=Pappa Joe's  - Stanky Dank 
DYEAR=1900
DGENRE=
TTITLE0=Chicken Lips-Bad Skin (DjKicks)
TTITLE1=Chicken Lips-Skin Bad (DJKicks)
TTITLE2=Hanna-Faceless Emotion (Landslide Remix)
TTITLE3=J Boogie Dubtronic-RainFall (L.P.)
TTITLE4=J Boogie Dubtronic-RainFall (Kaskade Remix)
TTITLE5=Kaliedescope-Love Is All
TTITLE6=Kaliedescope-Dub It All
TTITLE7=Kaliedescope-Hallow Body Blues
TTITLE8=Tiefshwarz-Thu A Little Window
TTITLE9=John Cutler-Its Yours
TTITLE10=Harold Melvin-Don't Leave Me This Way
EXTD=
EXTT0=
EXTT1=
EXTT2=
EXTT3=
EXTT4=
EXTT5=
EXTT6=
EXTT7=
EXTT8=
EXTT9=
EXTT10=
PLAYORDER=
